<?xml version="1.0" encoding="utf-8"?>
<!-- Generator: Adobe Illustrator 26.0.0, SVG Export Plug-In . SVG Version: 6.00 Build 0)  -->
<svg version="1.1" id="图层_1" xmlns="http://www.w3.org/2000/svg" xmlns:xlink="http://www.w3.org/1999/xlink" x="0px" y="0px"
	 viewBox="0 0 1024 1024" style="enable-background:new 0 0 1024 1024;" xml:space="preserve">
<style type="text/css">
	.st0{fill:none;}
	.st1{fill:#00BF7A;}
	.st2{fill:#B2EDB2;}
	.st3{fill:#FF5562;}
	.st4{fill:#FFBBC0;}
	.st5{fill:#2696FF;}
	.st6{fill:#8FC6FE;}
	.st7{fill:#FF9F0E;}
	.st8{fill:#FFC578;}
	.st9{fill:#F7B825;}
	.st10{fill:#FFFFFF;}
	.st11{fill:#FFE6B3;}
	.st12{fill:#576A95;}
	.st13{fill:#BBC3D4;}
</style>
<g>
	<path class="st12" d="M627.67,335.7c-7.74-6.97-11.67-17.18-11.75-26.78l-1.51-179.17l0-0.02l16.31,16.16l-16.29-16.18H241.1
		c-26.1,0-47.44,19.73-49.09,44.67v675.24c1.65,24.94,22.99,44.67,49.09,44.67H782.4c27.18,0,49.21-21.39,49.21-47.79V345.37
		L654.65,347C645.04,347.08,634.77,343.33,627.67,335.7z M691.35,431c9.97,9.97,17.38,21.11,22.22,33.44
		c4.84,12.32,7.27,24.99,7.27,38.01c0,13.01-2.42,25.68-7.27,38.01c-4.85,12.32-12.25,23.47-22.22,33.44L532.27,731.72
		c-9.97,9.97-22.22,18.27-36.76,24.92c-14.54,6.64-29.91,10.52-46.1,11.63c-16.2,1.11-32.74-1.11-49.64-6.65
		c-16.89-5.54-32.54-15.51-46.94-29.91c-14.12-14.12-23.95-29.42-29.49-45.9s-7.75-32.88-6.64-49.22
		c1.11-16.34,4.91-31.71,11.42-46.1c6.51-14.4,14.75-26.58,24.71-36.55l141.22-139.98c2.49-2.49,6.16-3.12,11.01-1.87
		c4.84,1.25,8.51,3.12,11.01,5.61c2.22,2.49,4.01,6.16,5.4,11.01c1.38,4.85,0.83,8.52-1.66,11.01L379,579.28
		c-7.48,7.48-13.71,16.2-18.69,26.17c-4.99,9.97-7.89,20.63-8.72,31.98c-0.83,11.35,0.83,22.85,4.98,34.48
		c4.16,11.63,11.63,22.84,22.43,33.64c9.69,9.69,20.42,16.54,32.19,20.56c11.77,4.01,23.47,5.68,35.1,4.98
		c11.63-0.69,22.71-3.25,33.23-7.68c10.52-4.43,19.52-10.38,27-17.86l158.67-157.42c7.48-7.48,12.81-15.23,15.99-23.26
		c3.18-8.03,4.71-15.99,4.57-23.88c-0.14-7.89-2.01-15.58-5.61-23.05c-3.6-7.48-8.59-14.4-14.95-20.77
		c-11.91-11.63-25.27-17.1-40.08-16.41c-14.81,0.69-29.7,8.51-44.65,23.47l-143.3,142.47c-6.37,6.37-9.48,13.43-9.34,21.18
		c0.14,7.75,2.7,14.12,7.68,19.11c6.09,6.09,13.08,8.58,20.98,7.48c7.89-1.11,14.33-4.15,19.31-9.14l130.01-129.18
		c2.49-2.49,6.16-3.12,11.01-1.87c4.85,1.25,8.51,3.12,11.01,5.61c2.49,2.49,4.43,6.16,5.82,11.01c1.38,4.85,0.83,8.52-1.66,11.01
		L501.53,671.08c-9.97,9.97-19.52,16.89-28.66,20.77c-9.14,3.88-17.72,5.61-25.75,5.19c-8.03-0.42-15.51-2.56-22.43-6.44
		c-6.92-3.88-13.29-8.58-19.11-14.12c-4.71-4.43-8.93-10.11-12.67-17.03c-3.74-6.92-5.88-14.54-6.44-22.84
		c-0.55-8.31,0.9-17.17,4.36-26.58c3.46-9.41,10.18-18.97,20.14-28.66c4.99-4.99,9.42-9.55,13.29-13.71
		c3.32-3.6,6.44-6.78,9.35-9.55c2.91-2.77,4.5-4.29,4.78-4.57l115.89-115.47c9.97-9.97,20.84-17.79,32.61-23.47
		c11.77-5.68,23.74-8.93,35.93-9.76c12.18-0.83,24.16,0.83,35.93,4.98C670.52,413.97,681.39,421.03,691.35,431z"/>
	<path class="st10" d="M622.82,404.83c-12.18,0.83-24.16,4.08-35.93,9.76c-11.77,5.68-22.64,13.5-32.61,23.47L438.4,553.53
		c-0.28,0.28-1.87,1.8-4.78,4.57c-2.91,2.77-6.02,5.95-9.35,9.55c-3.88,4.15-8.31,8.72-13.29,13.71
		c-9.97,9.69-16.68,19.25-20.14,28.66c-3.46,9.42-4.92,18.28-4.36,26.58c0.55,8.31,2.7,15.92,6.44,22.84
		c3.74,6.92,7.96,12.6,12.67,17.03c5.82,5.54,12.18,10.25,19.11,14.12c6.92,3.88,14.4,6.02,22.43,6.44
		c8.03,0.41,16.62-1.32,25.75-5.19c9.14-3.88,18.69-10.8,28.66-20.77L631.96,541.9c2.49-2.49,3.05-6.16,1.66-11.01
		c-1.39-4.84-3.32-8.51-5.82-11.01c-2.49-2.49-6.16-4.36-11.01-5.61c-4.85-1.25-8.51-0.62-11.01,1.87L475.78,645.32
		c-4.99,4.99-11.42,8.03-19.31,9.14c-7.89,1.11-14.88-1.38-20.98-7.48c-4.98-4.99-7.54-11.35-7.68-19.11
		c-0.14-7.75,2.98-14.81,9.34-21.18l143.3-142.47c14.95-14.95,29.84-22.77,44.65-23.47c14.81-0.69,28.18,4.78,40.08,16.41
		c6.37,6.37,11.35,13.29,14.95,20.77c3.6,7.48,5.47,15.16,5.61,23.05c0.14,7.89-1.38,15.85-4.57,23.88
		c-3.19,8.03-8.51,15.78-15.99,23.26L506.52,705.55c-7.48,7.48-16.48,13.43-27,17.86c-10.52,4.43-21.6,6.99-33.23,7.68
		c-11.63,0.69-23.33-0.97-35.1-4.98c-11.77-4.02-22.5-10.87-32.19-20.56c-10.8-10.8-18.27-22.01-22.43-33.64
		c-4.15-11.63-5.82-23.12-4.98-34.48c0.83-11.35,3.74-22.01,8.72-31.98c4.98-9.97,11.21-18.69,18.69-26.17l140.81-139.56
		c2.49-2.49,3.04-6.16,1.66-11.01c-1.38-4.84-3.18-8.51-5.4-11.01c-2.49-2.49-6.16-4.36-11.01-5.61c-4.85-1.25-8.52-0.62-11.01,1.87
		L352.84,553.95c-9.97,9.97-18.21,22.15-24.71,36.55c-6.51,14.4-10.32,29.77-11.42,46.1c-1.11,16.34,1.11,32.74,6.64,49.22
		s15.37,31.77,29.49,45.9c14.4,14.4,30.04,24.37,46.94,29.91c16.89,5.54,33.44,7.75,49.64,6.65c16.2-1.11,31.57-4.99,46.1-11.63
		c14.54-6.65,26.79-14.95,36.76-24.92l159.08-157.84c9.97-9.97,17.38-21.11,22.22-33.44c4.84-12.32,7.27-24.99,7.27-38.01
		c0-13.01-2.42-25.68-7.27-38.01c-4.85-12.32-12.25-23.47-22.22-33.44c-9.97-9.97-20.84-17.03-32.61-21.18
		C646.98,405.66,635,404,622.82,404.83z"/>
	<path class="st13" d="M630.72,145.89l-16.31-16.16l0,0.02l1.51,179.17c0.08,9.6,4.01,19.81,11.75,26.78
		c7.1,7.62,17.38,11.38,26.98,11.3l176.97-1.63l0.38,0L630.72,145.89z"/>
</g>
</svg>
