<?xml version="1.0" encoding="utf-8"?>
<!-- Generator: Adobe Illustrator 26.0.0, SVG Export Plug-In . SVG Version: 6.00 Build 0)  -->
<svg version="1.1" id="图层_1" xmlns="http://www.w3.org/2000/svg" xmlns:xlink="http://www.w3.org/1999/xlink" x="0px" y="0px"
	 viewBox="0 0 1024 1024" style="enable-background:new 0 0 1024 1024;" xml:space="preserve">
<style type="text/css">
	.st0{fill:none;}
	.st1{fill:#00BF7A;}
	.st2{fill:#B2EDB2;}
	.st3{fill:#FF5562;}
	.st4{fill:#FFBBC0;}
	.st5{fill:#2696FF;}
	.st6{fill:#8FC6FE;}
	.st7{fill:#FF9F0E;}
	.st8{fill:#FFC578;}
	.st9{fill:#F7B825;}
	.st10{fill:#FFFFFF;}
	.st11{fill:#FFE6B3;}
	.st12{fill:#576A95;}
	.st13{fill:#BBC3D4;}
</style>
<g>
	<path class="st0" d="M639.98,478.95h-61.14l-43.6,60.99c-8.52,12.06-15.53,23.76-25.05,39.36h-2.51
		c-11.02-15.6-19.04-27.3-28.06-39.36l-44.6-60.99h-64.65l99.22,126.23L363.86,739.93h61.64l47.1-64.89
		c9.02-13.12,18.04-26.6,28.57-42.55h2c11.53,15.95,21.05,29.43,30.57,42.55l48.61,64.89h64.64L540.75,607.31L639.98,478.95z"/>
	<path class="st1" d="M652.74,345.95c-9.61,0-19.84-3.84-26.88-11.52c-7.69-7.04-11.53-17.28-11.53-26.88v-179.2l217.61,217.6
		l-217.6-217.61h-384c-9.6,0-19.85,3.84-26.88,11.52c-6.4,6.99-10.68,15.57-11.4,24.29v696.61c0.68,8.75,4.47,17.71,11.4,24.06
		c7.68,7.68,17.28,11.52,26.88,11.52h563.21c9.59,0,19.84-3.84,26.87-11.52c7.68-7.67,11.52-17.28,11.52-26.87v-512H652.74z
		 M582.35,739.93l-48.61-64.89c-9.52-13.12-19.04-26.6-30.57-42.55h-2c-10.53,15.95-19.55,29.43-28.57,42.55l-47.1,64.89h-61.64
		l105.73-134.75l-99.22-126.23h64.65l44.6,60.99c9.02,12.06,17.04,23.76,28.06,39.36h2.51c9.52-15.6,16.53-27.3,25.05-39.36
		l43.6-60.99h61.14l-99.23,128.36l106.24,132.62H582.35z"/>
	<path class="st2" d="M614.33,307.55c0,9.6,3.84,19.84,11.53,26.88c7.04,7.68,17.27,11.52,26.88,11.52h179.2l-217.61-217.6V307.55z"
		/>
</g>
</svg>
