<?xml version="1.0" encoding="utf-8"?>
<!-- Generator: Adobe Illustrator 26.0.0, SVG Export Plug-In . SVG Version: 6.00 Build 0)  -->
<svg version="1.1" id="图层_1" xmlns="http://www.w3.org/2000/svg" xmlns:xlink="http://www.w3.org/1999/xlink" x="0px" y="0px"
	 viewBox="0 0 1024 1024" style="enable-background:new 0 0 1024 1024;" xml:space="preserve">
<style type="text/css">
	.st0{fill:none;}
	.st1{fill:#00BF7A;}
	.st2{fill:#B2EDB2;}
	.st3{fill:#FF5562;}
	.st4{fill:#FFBBC0;}
	.st5{fill:#2696FF;}
	.st6{fill:#8FC6FE;}
	.st7{fill:#FF9F0E;}
	.st8{fill:#FFC578;}
	.st9{fill:#F7B825;}
	.st10{fill:#FFFFFF;}
	.st11{fill:#FFE6B3;}
	.st12{fill:#576A95;}
	.st13{fill:#BBC3D4;}
</style>
<g>
	<path class="st0" d="M354.32,481.87h-62.43v206.06h32.47v-78.11h31.08c44.8,0,77.55-20.72,77.55-65.79
		C432.99,497.55,400.24,481.87,354.32,481.87z M352.36,583.78h-28v-75.87h26.88c32.76,0,49.84,8.96,49.84,36.12
		C401.08,571.18,385.4,583.78,352.36,583.78z"/>
	<polygon class="st0" points="664.25,687.93 696.72,687.93 696.72,599.18 772.87,599.18 772.87,572.02 696.72,572.02 696.72,509.03 
		786.31,509.03 786.31,481.87 664.25,481.87 	"/>
	<path class="st0" d="M524.26,481.87h-53.47v206.06h55.15c61.59,0,97.71-36.95,97.71-103.87
		C623.65,516.87,587.53,481.87,524.26,481.87z M522.02,661.33h-18.76V508.19h18.76c44.24,0,68.04,24.36,68.04,75.87
		C590.06,635.3,566.26,661.33,522.02,661.33z"/>
	<path class="st7" d="M831.94,345.67h-179.2c-9.6,0-19.84-3.84-26.88-11.52c-7.68-7.04-11.52-17.28-11.52-26.88v-179.2
		l151.79,151.79L614.34,128.07h-384c-9.6,0-19.84,3.84-26.88,11.52c-6.41,6.99-10.68,15.57-11.4,24.29v696.61
		c0.67,8.75,4.47,17.71,11.4,24.06c7.68,7.68,17.28,11.52,26.88,11.52h563.2c9.6,0,19.84-3.84,26.88-11.52
		c7.68-7.67,11.52-17.28,11.52-26.87L831.94,345.67L831.94,345.67z M355.44,609.82h-31.08v78.11h-32.47V481.87h62.43
		c45.92,0,78.67,15.68,78.67,62.16C432.99,589.1,400.24,609.82,355.44,609.82z M525.94,687.93h-55.15V481.87h53.47
		c63.27,0,99.39,35,99.39,102.19C623.65,650.98,587.53,687.93,525.94,687.93z M786.31,509.03h-89.59v62.99h76.15v27.16h-76.15v88.75
		h-32.47V481.87h122.06V509.03z"/>
	<path class="st7" d="M351.24,507.91h-26.88v75.87h28c33.04,0,48.72-12.6,48.72-39.75C401.08,516.87,384,507.91,351.24,507.91z"/>
	<path class="st7" d="M522.02,508.19h-18.76v153.14h18.76c44.24,0,68.04-26.03,68.04-77.27
		C590.06,532.55,566.26,508.19,522.02,508.19z"/>
	<path class="st8" d="M614.34,307.27c0,9.6,3.84,19.84,11.52,26.88c7.04,7.68,17.28,11.52,26.88,11.52h179.2h0l-65.82-65.82
		L614.34,128.07V307.27z"/>
</g>
</svg>
