<?xml version="1.0" encoding="utf-8"?>
<!-- Generator: Adobe Illustrator 26.0.0, SVG Export Plug-In . SVG Version: 6.00 Build 0)  -->
<svg version="1.1" id="图层_1" xmlns="http://www.w3.org/2000/svg" xmlns:xlink="http://www.w3.org/1999/xlink" x="0px" y="0px"
	 viewBox="0 0 1024 1024" style="enable-background:new 0 0 1024 1024;" xml:space="preserve">
<style type="text/css">
	.st0{fill:none;}
	.st1{fill:#00BF7A;}
	.st2{fill:#B2EDB2;}
	.st3{fill:#FF5562;}
	.st4{fill:#FFBBC0;}
	.st5{fill:#2696FF;}
	.st6{fill:#8FC6FE;}
	.st7{fill:#FF9F0E;}
	.st8{fill:#FFC578;}
	.st9{fill:#F7B825;}
	.st10{fill:#FFFFFF;}
	.st11{fill:#FFE6B3;}
	.st12{fill:#576A95;}
	.st13{fill:#BBC3D4;}
</style>
<g>
	<path class="st0" d="M629.06,542.84c-2.56-3.84-6.4-5.76-10.88-5.76s-8.32,2.56-10.88,5.76l-42.88,66.56l-96-155.52
		c-2.56-3.84-6.4-5.76-10.88-5.76c-4.48,0-8.32,2.56-10.88,5.76L314.82,667c-2.56,3.84-2.56,8.96,0,12.8
		c2.56,4.48,6.4,6.4,10.88,6.4h372.48c4.48,0,8.96-2.56,11.52-6.4c1.92-4.48,1.92-9.6-0.64-12.8L629.06,542.84z"/>
	<circle class="st0" cx="632.26" cy="432.12" r="32"/>
	<path class="st3" d="M652.74,345.73c-9.6,0-19.84-3.84-26.87-11.52c-7.69-7.04-11.53-17.28-11.53-26.88v-179.2v-0.01h-384
		c-9.59,0-19.84,3.84-26.88,11.52c-6.4,6.99-10.68,15.57-11.4,24.29v696.61c0.68,8.75,4.47,17.71,11.4,24.06
		c7.68,7.68,17.29,11.52,26.88,11.52h563.21c9.59,0,19.84-3.84,26.87-11.52c7.68-7.67,11.52-17.28,11.52-26.87v-512H652.74z
		 M632.26,400.12c17.67,0,32,14.33,32,32s-14.33,32-32,32s-32-14.33-32-32S614.59,400.12,632.26,400.12z M709.7,679.8
		c-2.56,3.84-7.04,6.4-11.52,6.4H325.7c-4.48,0-8.32-1.92-10.88-6.4c-2.56-3.84-2.56-8.96,0-12.8l131.84-213.12
		c2.56-3.2,6.4-5.76,10.88-5.76c4.48,0,8.32,1.92,10.88,5.76l96,155.52l42.88-66.56c2.56-3.2,6.4-5.76,10.88-5.76
		s8.32,1.92,10.88,5.76l80,124.16C711.62,670.2,711.62,675.32,709.7,679.8z"/>
	<path class="st4" d="M625.87,334.21c7.03,7.68,17.27,11.52,26.87,11.52h179.2l-217.6-217.6v179.2
		C614.34,316.93,618.18,327.17,625.87,334.21z"/>
</g>
</svg>
