<?xml version="1.0" encoding="utf-8"?>
<!-- Generator: Adobe Illustrator 26.0.0, SVG Export Plug-In . SVG Version: 6.00 Build 0)  -->
<svg version="1.1" id="图层_1" xmlns="http://www.w3.org/2000/svg" xmlns:xlink="http://www.w3.org/1999/xlink" x="0px" y="0px"
	 viewBox="0 0 1024 1024" style="enable-background:new 0 0 1024 1024;" xml:space="preserve">
<style type="text/css">
	.st0{fill:none;}
	.st1{fill:#00BF7A;}
	.st2{fill:#B2EDB2;}
	.st3{fill:#FF5562;}
	.st4{fill:#FFBBC0;}
	.st5{fill:#2696FF;}
	.st6{fill:#8FC6FE;}
	.st7{fill:#FF9F0E;}
	.st8{fill:#FFC578;}
	.st9{fill:#F7B825;}
	.st10{fill:#FFFFFF;}
	.st11{fill:#FFE6B3;}
	.st12{fill:#576A95;}
	.st13{fill:#BBC3D4;}
</style>
<g>
	<path class="st0" d="M521.91,446.24H390.79v315.15h48.22v-122.9h81.8c75.48,0,113.46-32.31,113.78-96.44
		C634.59,478.18,597.03,446.24,521.91,446.24z M584.95,551.73c1.41,15.79-4.38,31.36-15.76,42.39
		c-15.32,9.96-33.48,14.62-51.69,13.23h-78.81v-10v-100.3v-10h78.81c18.21-1.43,36.4,3.23,51.69,13.24
		c11.58,10.14,17.46,25.28,15.84,40.54C585.42,544.43,585.41,548.08,584.95,551.73z"/>
	<path class="st3" d="M569.19,500.29c-15.29-10.01-33.48-14.67-51.69-13.24h-78.81v10v100.3v10h78.81
		c18.21,1.39,36.37-3.27,51.69-13.23c11.38-11.03,17.17-26.6,15.76-42.39c0.46-3.66,0.47-7.31,0.08-10.9
		C586.65,525.57,580.77,510.44,569.19,500.29z"/>
	<path class="st3" d="M652.74,345.8c-9.6,0-19.84-3.84-26.87-11.52c-7.69-7.04-11.53-17.28-11.53-26.88V128.2v-0.01h-384
		c-9.59,0-19.84,3.84-26.88,11.52c-6.4,6.99-10.68,15.57-11.4,24.29v696.61c0.68,8.75,4.47,17.71,11.4,24.06
		c7.68,7.68,17.29,11.52,26.88,11.52h563.21c9.59,0,19.84-3.84,26.87-11.52c7.68-7.67,11.52-17.28,11.52-26.87v-512H652.74z
		 M520.81,638.49h-81.8v122.9h-48.22V446.24h131.12c75.12,0,112.68,31.94,112.68,95.81C634.27,606.18,596.29,638.49,520.81,638.49z"
		/>
	<path class="st4" d="M625.87,334.28c7.03,7.68,17.27,11.52,26.87,11.52h179.2l-217.6-217.6v179.2
		C614.34,317,618.18,327.24,625.87,334.28z"/>
</g>
</svg>
