<?xml version="1.0" encoding="utf-8"?>
<!-- Generator: Adobe Illustrator 26.0.0, SVG Export Plug-In . SVG Version: 6.00 Build 0)  -->
<svg version="1.1" id="图层_1" xmlns="http://www.w3.org/2000/svg" xmlns:xlink="http://www.w3.org/1999/xlink" x="0px" y="0px"
	 viewBox="0 0 1024 1024" style="enable-background:new 0 0 1024 1024;" xml:space="preserve">
<style type="text/css">
	.st0{fill:none;}
	.st1{fill:#00BF7A;}
	.st2{fill:#B2EDB2;}
	.st3{fill:#FF5562;}
	.st4{fill:#FFBBC0;}
	.st5{fill:#2696FF;}
	.st6{fill:#8FC6FE;}
	.st7{fill:#FF9F0E;}
	.st8{fill:#FFC578;}
	.st9{fill:#F7B825;}
	.st10{fill:#FFFFFF;}
	.st11{fill:#FFE6B3;}
	.st12{fill:#576A95;}
	.st13{fill:#BBC3D4;}
</style>
<g>
	<polygon class="st0" points="273.63,515.87 333.81,515.87 333.81,693.92 366.14,693.92 366.14,515.87 426.6,515.87 426.6,488.84 
		273.63,488.84 	"/>
	<path class="st0" d="M586.82,488.84h-34l-24.24,47.93c-4.73,9.47-8.64,18.67-13.93,30.93h-1.39
		c-6.13-12.26-10.59-21.46-15.61-30.93l-24.8-47.93h-35.94l55.17,99.2l-58.79,105.88h34.27l26.19-50.99
		c5.02-10.31,10.03-20.9,15.88-33.43h1.12c6.41,12.53,11.7,23.12,17,33.43l27.02,50.99h35.95l-59.07-104.21L586.82,488.84z"/>
	<polygon class="st0" points="597.41,515.87 657.59,515.87 657.59,693.92 689.92,693.92 689.92,515.87 750.38,515.87 750.38,488.84 
		597.41,488.84 	"/>
	<path class="st5" d="M614.34,128.09h-384c-9.59,0-19.84,3.84-26.88,11.52c-6.4,6.99-10.68,15.57-11.4,24.29v696.61
		c0.68,8.75,4.47,17.71,11.4,24.06c7.68,7.68,17.29,11.52,26.88,11.52h563.21c9.59,0,19.84-3.84,26.87-11.52
		c7.68-7.67,11.52-17.28,11.52-26.87v-512h-179.2c-9.6,0-19.84-3.84-26.88-11.52c-7.68-7.04-11.52-17.28-11.52-26.88L614.34,128.09
		l217.6,217.61v0L614.34,128.09z M426.6,515.87h-60.46v178.05h-32.33V515.87h-60.18v-27.03H426.6V515.87z M554.77,693.92
		l-27.02-50.99c-5.3-10.31-10.59-20.9-17-33.43h-1.12c-5.85,12.53-10.86,23.12-15.88,33.43l-26.19,50.99h-34.27l58.79-105.88
		l-55.17-99.2h35.94l24.8,47.93c5.02,9.47,9.48,18.67,15.61,30.93h1.39c5.29-12.26,9.2-21.46,13.93-30.93l24.24-47.93h34
		l-55.17,100.87l59.07,104.21H554.77z M750.38,488.84v27.03h-60.46v178.05h-32.33V515.87h-60.18v-27.03H750.38z"/>
	<path class="st6" d="M614.34,307.29c0,9.6,3.84,19.84,11.52,26.88c7.04,7.68,17.28,11.52,26.88,11.52h179.2l-217.6-217.6V307.29z"
		/>
</g>
</svg>
