<?xml version="1.0" encoding="utf-8"?>
<!-- Generator: Adobe Illustrator 26.0.0, SVG Export Plug-In . SVG Version: 6.00 Build 0)  -->
<svg version="1.1" id="图层_1" xmlns="http://www.w3.org/2000/svg" xmlns:xlink="http://www.w3.org/1999/xlink" x="0px" y="0px"
	 viewBox="0 0 1024 1024" style="enable-background:new 0 0 1024 1024;" xml:space="preserve">
<style type="text/css">
	.st0{fill:none;}
	.st1{fill:#00BF7A;}
	.st2{fill:#B2EDB2;}
	.st3{fill:#FF5562;}
	.st4{fill:#FFBBC0;}
	.st5{fill:#2696FF;}
	.st6{fill:#8FC6FE;}
	.st7{fill:#FF9F0E;}
	.st8{fill:#FFC578;}
	.st9{fill:#F7B825;}
	.st10{fill:#FFFFFF;}
	.st11{fill:#FFE6B3;}
	.st12{fill:#576A95;}
	.st13{fill:#BBC3D4;}
</style>
<g>
	<path class="st0" d="M612.11,613.33c-4.69,27.28-9.76,55.26-14.45,83.6h-1.95c-6.64-28.34-12.88-56.32-19.52-83.6L538.7,477.66
		h-39.82l-37.1,135.67c-6.63,27.63-13.27,55.62-19.52,83.6h-1.56l-15.23-83.6l-26.94-135.67h-46.85l58.95,260.72h54.67l37.87-144.89
		c4.69-20.54,9.37-40.02,13.28-59.86h1.95c3.91,19.84,8.2,39.32,13.28,59.86l38.65,144.89h55.84l56.61-260.72h-43.34L612.11,613.33z
		"/>
	<path class="st5" d="M614.34,128.63h-384c-9.59,0-19.84,3.84-26.88,11.52c-6.4,6.99-10.68,15.57-11.4,24.29v696.61
		c0.68,8.75,4.47,17.71,11.4,24.06c7.68,7.68,17.29,11.52,26.88,11.52h563.21c9.59,0,19.84-3.84,26.87-11.52
		c7.68-7.67,11.52-17.28,11.52-26.87v-512L614.34,128.63z M626.17,738.38h-55.84l-38.65-144.89c-5.08-20.54-9.37-40.02-13.28-59.86
		h-1.95c-3.91,19.84-8.59,39.32-13.28,59.86L465.3,738.38h-54.67l-58.95-260.72h46.85l26.94,135.67l15.23,83.6h1.56
		c6.25-27.98,12.89-55.97,19.52-83.6l37.1-135.67h39.82l37.49,135.67c6.64,27.28,12.88,55.26,19.52,83.6h1.95
		c4.69-28.34,9.76-56.32,14.45-83.6l27.33-135.67h43.34L626.17,738.38z M652.74,346.24c-9.6,0-19.84-3.84-26.88-11.52
		c-7.68-7.04-11.52-17.28-11.52-26.88v-179.2l217.6,217.6H652.74z"/>
	<path class="st6" d="M614.34,307.84c0,9.6,3.84,19.84,11.52,26.88c7.04,7.68,17.28,11.52,26.88,11.52h179.2l-217.6-217.6V307.84z"
		/>
</g>
</svg>
