<?xml version="1.0" encoding="utf-8"?>
<!-- Generator: Adobe Illustrator 26.0.0, SVG Export Plug-In . SVG Version: 6.00 Build 0)  -->
<svg version="1.1" id="图层_1" xmlns="http://www.w3.org/2000/svg" xmlns:xlink="http://www.w3.org/1999/xlink" x="0px" y="0px"
	 viewBox="0 0 1024 1024" style="enable-background:new 0 0 1024 1024;" xml:space="preserve">
<style type="text/css">
	.st0{fill:none;}
	.st1{fill:#00BF7A;}
	.st2{fill:#B2EDB2;}
	.st3{fill:#FF5562;}
	.st4{fill:#FFBBC0;}
	.st5{fill:#2696FF;}
	.st6{fill:#8FC6FE;}
	.st7{fill:#FF9F0E;}
	.st8{fill:#FFC578;}
	.st9{fill:#F7B825;}
	.st10{fill:#FFFFFF;}
	.st11{fill:#FFE6B3;}
	.st12{fill:#576A95;}
	.st13{fill:#BBC3D4;}
</style>
<g>
	<rect x="484.4" y="676.32" class="st9" width="54.7" height="52.27"/>
	<path class="st9" d="M627.67,352.07c-7.75-6.97-11.67-17.18-11.76-26.78l-1.54-179.17l-0.02-0.02h-102.5v52.22h54.02v52.7h-54.02
		v48.8h54.02v52.7h-54.02v52.06h54.02v52.06h-54.02v52.05h-54.24v-52.06h54.02v-52.05h-54.02v-52.05h54.02v-52.7h-54.02v-52.7h54.02
		v-48.8h-54.02V146.1H241.09c-26.1,0-47.44,19.76-49.09,44.74v676.31c1.65,24.98,22.99,44.74,49.09,44.74H782.4
		c27.18,0,49.21-21.43,49.21-47.86L832,361.7l-177.35,1.66C645.05,363.44,634.77,359.69,627.67,352.07z M511.2,512.58h53.79v0.01
		v52.26H511.2V512.58z M565.88,720.78c0,6.91-2.83,13.53-7.85,18.4c-5.02,4.88-11.83,7.63-18.93,7.63h-54.7
		c-7.1,0-13.91-2.74-18.93-7.62c-5.02-4.88-7.85-11.51-7.85-18.41V616.69h108.26V720.78z"/>
	<polygon class="st10" points="511.64,198.32 511.64,247.12 457.62,247.12 457.62,299.82 511.64,299.82 511.64,352.53 
		457.62,352.53 457.62,404.57 511.64,404.57 511.64,456.63 457.62,456.63 457.62,508.68 511.86,508.68 511.86,456.63 565.88,456.63 
		565.88,404.57 511.86,404.57 511.86,352.52 565.88,352.52 565.88,299.82 511.86,299.82 511.86,251.02 565.88,251.02 565.88,198.32 
		511.86,198.32 511.86,146.1 511.86,145.62 457.62,145.62 457.62,146.1 457.62,198.32 	"/>
	<path class="st10" d="M457.62,720.78c0,6.91,2.82,13.53,7.85,18.41c5.03,4.88,11.84,7.62,18.93,7.62h54.7
		c7.1,0,13.91-2.74,18.93-7.63c5.02-4.88,7.85-11.5,7.85-18.4v-104.1H457.62V720.78z M484.4,676.32h54.7v52.27h-54.7V676.32z"/>
	<polygon class="st10" points="564.99,512.59 564.99,512.58 511.2,512.58 511.2,564.85 564.99,564.85 	"/>
	<path class="st11" d="M614.37,146.12l1.54,179.17c0.08,9.6,4.01,19.81,11.76,26.78c7.11,7.62,17.38,11.38,26.98,11.29L832,361.7
		L614.37,146.1L614.37,146.12z"/>
</g>
</svg>
